<svg width="22" height="22" viewBox="0 0 22 22" fill="none" xmlns="http://www.w3.org/2000/svg">
<path d="M19.25 18.3335C19.25 16.7367 17.7192 15.3791 15.5833 14.8749M13.75 18.3335C13.75 16.3077 11.2878 14.6668 8.25 14.6668C5.21217 14.6668 2.75 16.3077 2.75 18.3335M13.75 11.9168C14.7225 11.9168 15.6551 11.5305 16.3427 10.8429C17.0304 10.1553 17.4167 9.22262 17.4167 8.25016C17.4167 7.2777 17.0304 6.34507 16.3427 5.65744C15.6551 4.9698 14.7225 4.5835 13.75 4.5835M8.25 11.9168C7.27754 11.9168 6.34491 11.5305 5.65728 10.8429C4.96964 10.1553 4.58333 9.22262 4.58333 8.25016C4.58333 7.2777 4.96964 6.34507 5.65728 5.65744C6.34491 4.9698 7.27754 4.5835 8.25 4.5835C9.22246 4.5835 10.1551 4.9698 10.8427 5.65744C11.5304 6.34507 11.9167 7.2777 11.9167 8.25016C11.9167 9.22262 11.5304 10.1553 10.8427 10.8429C10.1551 11.5305 9.22246 11.9168 8.25 11.9168Z" stroke="#2563EB" stroke-width="1.5" stroke-linecap="round" stroke-linejoin="round"/>
</svg>
