<svg width="48" height="48" viewBox="0 0 48 48" fill="none" xmlns="http://www.w3.org/2000/svg">
<rect width="48" height="48" rx="12" fill="#F8FAFC"/>
<path d="M24 33C28.9706 33 33 28.9706 33 24C33 19.0294 28.9706 15 24 15C19.0294 15 15 19.0294 15 24C15 28.9706 19.0294 33 24 33Z" stroke="#38BDF8" stroke-width="2" stroke-linecap="round" stroke-linejoin="round"/>
<path d="M26.8 20.9999C26.6188 20.6857 26.3557 20.4266 26.0386 20.2505C25.7215 20.0743 25.3625 19.9877 25 19.9999H23C22.4696 19.9999 21.9609 20.2106 21.5858 20.5857C21.2107 20.9608 21 21.4695 21 21.9999C21 22.5303 21.2107 23.0391 21.5858 23.4141C21.9609 23.7892 22.4696 23.9999 23 23.9999H25C25.5304 23.9999 26.0391 24.2106 26.4142 24.5857C26.7893 24.9608 27 25.4695 27 25.9999C27 26.5303 26.7893 27.0391 26.4142 27.4141C26.0391 27.7892 25.5304 27.9999 25 27.9999H23C22.6375 28.0121 22.2785 27.9255 21.9614 27.7494C21.6443 27.5732 21.3812 27.3142 21.2 26.9999" stroke="#38BDF8" stroke-width="2" stroke-linecap="round" stroke-linejoin="round"/>
<path d="M24 28V30M24 18V20V18Z" stroke="#38BDF8" stroke-width="2" stroke-linecap="round" stroke-linejoin="round"/>
</svg>
