<svg width="22" height="22" viewBox="0 0 22 22" fill="none" xmlns="http://www.w3.org/2000/svg">
<path d="M5.49996 19.2499C6.51248 19.2499 7.33329 18.4291 7.33329 17.4166C7.33329 16.4041 6.51248 15.5833 5.49996 15.5833C4.48744 15.5833 3.66663 16.4041 3.66663 17.4166C3.66663 18.4291 4.48744 19.2499 5.49996 19.2499Z" stroke="#64748B" stroke-width="1.5" stroke-linecap="round" stroke-linejoin="round"/>
<path d="M15.5833 19.2499C16.5959 19.2499 17.4167 18.4291 17.4167 17.4166C17.4167 16.4041 16.5959 15.5833 15.5833 15.5833C14.5708 15.5833 13.75 16.4041 13.75 17.4166C13.75 18.4291 14.5708 19.2499 15.5833 19.2499Z" stroke="#64748B" stroke-width="1.5" stroke-linecap="round" stroke-linejoin="round"/>
<path d="M15.5833 15.5833H5.49996V2.75H3.66663" stroke="#64748B" stroke-width="1.5" stroke-linecap="round" stroke-linejoin="round"/>
<path d="M18.3333 5.5L17.4167 11.9167H5.5" stroke="#64748B" stroke-width="1.5" stroke-linecap="round" stroke-linejoin="round"/>
<path d="M9.16663 9.16675L14.6666 3.66675" stroke="#64748B" stroke-width="1.5" stroke-linecap="round" stroke-linejoin="round"/>
<path d="M9.62496 4.58341C9.87809 4.58341 10.0833 4.37821 10.0833 4.12508C10.0833 3.87195 9.87809 3.66675 9.62496 3.66675C9.37183 3.66675 9.16663 3.87195 9.16663 4.12508C9.16663 4.37821 9.37183 4.58341 9.62496 4.58341Z" stroke="#64748B" stroke-width="1.5" stroke-linecap="round" stroke-linejoin="round"/>
<path d="M14.2083 9.16667C14.4615 9.16667 14.6667 8.96146 14.6667 8.70833C14.6667 8.4552 14.4615 8.25 14.2083 8.25C13.9552 8.25 13.75 8.4552 13.75 8.70833C13.75 8.96146 13.9552 9.16667 14.2083 9.16667Z" stroke="#64748B" stroke-width="1.5" stroke-linecap="round" stroke-linejoin="round"/>
</svg>
