<svg width="48" height="48" viewBox="0 0 48 48" fill="none" xmlns="http://www.w3.org/2000/svg">
<rect width="48" height="48" rx="12" fill="#FDF2F8"/>
<path d="M24 20V24L26 26" stroke="#ED4F9D" stroke-width="1.5" stroke-linecap="round" stroke-linejoin="round"/>
<path d="M15.05 23.0001C15.2741 20.8001 16.3003 18.7597 17.9328 17.268C19.5653 15.7764 21.6897 14.938 23.9009 14.9127C26.1121 14.8874 28.2552 15.6771 29.9213 17.1311C31.5874 18.5851 32.6599 20.6015 32.9342 22.7958C33.2085 24.99 32.6654 27.2085 31.4084 29.0278C30.1515 30.8472 28.2687 32.1401 26.1193 32.6599C23.97 33.1797 21.7045 32.89 19.755 31.8461C17.8056 30.8022 15.05 27.0001 15.05 27.0001M15.05 32.0001V27.0001M15.05 27.0001H20.05" stroke="#ED4F9D" stroke-width="1.5" stroke-linecap="round" stroke-linejoin="round"/>
</svg>
